<mxfile host="app.diagrams.net" modified="2024-02-28T16:01:36.518Z" agent="Mozilla/5.0 (Macintosh; Intel Mac OS X 10_15_7) AppleWebKit/537.36 (KHTML, like Gecko) Chrome/121.0.0.0 Safari/537.36" version="21.5.0" etag="SOIX-u5LsQkxpweeCquU" type="github">
  <diagram name="第 1 页" id="IX2B3MwNbz_EFTwf-zJd">
    <mxGraphModel>
      <root>
        <mxCell id="0" />
        <mxCell id="1" parent="0" />
      </root>
    </mxGraphModel>
  </diagram>
</mxfile>
